<svg width="1379" height="35" viewBox="0 0 1379 35" fill="none" xmlns="http://www.w3.org/2000/svg">
<path d="M1362.75 25.9312C1362.75 25.4137 1363.17 24.9937 1363.69 24.9937H1375.56C1376.08 24.9937 1376.5 25.4137 1376.5 25.9312C1376.5 26.4487 1376.08 26.8687 1375.56 26.8687H1363.69C1363.17 26.8687 1362.75 26.4487 1362.75 25.9312ZM1351.5 19.6812C1351.5 19.1637 1351.92 18.7437 1352.44 18.7437H1375.56C1376.08 18.7437 1376.5 19.1637 1376.5 19.6812C1376.5 20.1987 1376.08 20.6187 1375.56 20.6187H1352.44C1351.92 20.6187 1351.5 20.1987 1351.5 19.6812ZM1356.5 13.4312C1356.5 12.9137 1356.92 12.4937 1357.44 12.4937H1375.56C1376.08 12.4937 1376.5 12.9137 1376.5 13.4312C1376.5 13.9487 1376.08 14.3687 1375.56 14.3687H1357.44C1356.92 14.3687 1356.5 13.9487 1356.5 13.4312Z" fill="#C0C0C0"/>
<rect x="672" y="0.999756" width="87" height="34" rx="17" fill="#C0C0C0"/>
<path d="M886.28 23.9998V23.8767H886.813C887.187 23.8767 887.417 23.838 887.504 23.7605C887.595 23.6785 887.641 23.4688 887.641 23.1316V14.7986C887.641 14.4659 887.595 14.2608 887.504 14.1833C887.417 14.1013 887.187 14.0603 886.813 14.0603H886.28V13.9304H892.063C892.182 13.9304 892.266 13.9395 892.316 13.9578C892.367 13.976 892.421 14.0102 892.48 14.0603H892.494L892.439 13.1101L892.583 13.0964L892.877 17.198H892.597L892.521 16.2136C892.503 15.849 892.417 15.5323 892.262 15.2634C892.111 14.9945 891.906 14.7826 891.646 14.6277C891.391 14.4727 891.106 14.3611 890.792 14.2927C890.478 14.2198 890.127 14.1833 889.739 14.1833H888.495V14.197C888.718 14.4021 888.83 14.6459 888.83 14.9285V23.1316C888.83 23.4643 888.876 23.6716 888.967 23.7537C889.062 23.8357 889.297 23.8767 889.671 23.8767H890.662V23.9998H886.28ZM892.207 23.9998V23.8767H892.446C892.624 23.8767 892.774 23.8061 892.897 23.6648C893.021 23.519 893.155 23.3002 893.301 23.0085L897.628 13.9304H898.817V14.1013C898.817 14.4431 898.865 14.7143 898.961 14.9148L902.584 23.0085C902.753 23.3822 902.869 23.6056 902.933 23.6785C903.047 23.8106 903.233 23.8767 903.493 23.8767H903.623V23.9998H900.677V23.8767H901.859V23.8425C901.718 23.797 901.559 23.5782 901.381 23.1863L900.526 21.2722H894.422L893.595 23.0085C893.54 23.1544 893.513 23.2615 893.513 23.3298C893.513 23.4939 893.579 23.6261 893.711 23.7263C893.843 23.8266 894.023 23.8767 894.251 23.8767H895.01V23.9998H892.207ZM894.545 21.0193H900.417L897.799 15.1814C897.712 15.0037 897.669 14.8168 897.669 14.6208H897.532C897.532 14.7302 897.471 14.9171 897.348 15.1814L894.545 21.0193ZM905.011 13.9304H913.118V14.0603H912.571C912.216 14.0603 911.99 14.1173 911.895 14.2312C911.803 14.3406 911.758 14.573 911.758 14.9285V23.0085C911.758 23.364 911.803 23.5987 911.895 23.7126C911.99 23.822 912.216 23.8767 912.571 23.8767H913.118V23.9998H909.324V23.8767H909.741C910.092 23.8767 910.315 23.8197 910.411 23.7058C910.507 23.5919 910.555 23.3595 910.555 23.0085V14.1833H906.945V17.6013C906.945 18.4945 906.879 19.3399 906.747 20.1375C906.619 20.9304 906.446 21.6095 906.228 22.1746C906.013 22.7397 905.781 23.2182 905.53 23.6101C905.28 24.002 905.018 24.3005 904.744 24.5056L903.849 23.5691C904.095 23.3777 904.334 23.1589 904.566 22.9128C904.799 22.6622 905.036 22.3591 905.277 22.0037C905.523 21.6436 905.738 21.2654 905.92 20.8689C906.102 20.4724 906.25 20.019 906.364 19.5085C906.483 18.9936 906.544 18.4695 906.549 17.9363V15.0925C906.549 14.9148 906.544 14.7758 906.535 14.6755C906.531 14.5707 906.51 14.4773 906.474 14.3953C906.437 14.3087 906.398 14.2472 906.357 14.2107C906.316 14.1697 906.241 14.1378 906.132 14.115C906.027 14.0876 905.92 14.0717 905.811 14.0671C905.706 14.0626 905.551 14.0603 905.346 14.0603H905.011V13.9304ZM918.635 21.115H918.498V20.3425C918.498 20.0828 918.466 19.8595 918.402 19.6726C918.339 19.4858 918.259 19.3399 918.163 19.2351C918.067 19.1303 917.942 19.0483 917.787 18.989C917.632 18.9252 917.482 18.8865 917.336 18.8728C917.195 18.8546 917.026 18.8455 916.83 18.8455H916.215V23.0085C916.215 23.2865 916.103 23.5281 915.88 23.7332V23.7468H918.942C919.69 23.7468 920.246 23.601 920.61 23.3093C920.975 23.0131 921.185 22.53 921.239 21.8601L921.335 20.739H921.574L921.308 24.533L921.185 24.5193L921.226 23.8767H921.212C921.116 23.9587 920.925 23.9998 920.638 23.9998H913.665V23.8767H914.198C914.572 23.8767 914.802 23.838 914.889 23.7605C914.98 23.6785 915.025 23.4688 915.025 23.1316V14.7986C915.025 14.4659 914.98 14.2608 914.889 14.1833C914.802 14.1013 914.572 14.0603 914.198 14.0603H913.665V13.9304H919.811C920.098 13.9304 920.285 13.9737 920.371 14.0603H920.398L920.344 13.4177L920.48 13.4041L920.761 17.198H920.48L920.426 16.2136C920.38 15.4799 920.164 14.9581 919.776 14.6482C919.389 14.3383 918.812 14.1833 918.047 14.1833H915.88V14.197C916.103 14.4021 916.215 14.6459 916.215 14.9285V18.5925H916.83C917.031 18.5925 917.201 18.5857 917.343 18.572C917.484 18.5538 917.632 18.5151 917.787 18.4558C917.942 18.3966 918.067 18.3168 918.163 18.2166C918.259 18.1117 918.339 17.9659 918.402 17.7791C918.466 17.5922 918.498 17.3689 918.498 17.1091V16.6238H918.635V21.115ZM924.466 14.197V14.2722C924.634 14.4773 924.719 14.7667 924.719 15.1404V19.8298H925.587C926.558 19.8298 927.296 19.5906 927.802 19.1121C928.312 18.629 928.567 17.9294 928.567 17.0134C928.567 16.0974 928.312 15.4001 927.802 14.9216C927.296 14.4386 926.558 14.197 925.587 14.197H924.466ZM922.169 23.9998V23.8767H922.702C923.076 23.8767 923.306 23.838 923.393 23.7605C923.484 23.6785 923.529 23.4688 923.529 23.1316V14.7986C923.529 14.4659 923.484 14.2608 923.393 14.1833C923.306 14.1013 923.076 14.0603 922.702 14.0603H922.169V13.9304H926.045C927.207 13.9304 928.141 14.213 928.848 14.7781C929.559 15.3432 929.914 16.0883 929.914 17.0134C929.914 17.9294 929.559 18.67 928.848 19.2351C928.141 19.8002 927.207 20.0828 926.045 20.0828H924.719V23.1316C924.719 23.4643 924.764 23.6716 924.855 23.7537C924.951 23.8357 925.186 23.8767 925.56 23.8767H925.936V23.9998H922.169ZM935.561 21.115H935.424V20.3425C935.424 20.0828 935.392 19.8595 935.328 19.6726C935.264 19.4858 935.185 19.3399 935.089 19.2351C934.993 19.1303 934.868 19.0483 934.713 18.989C934.558 18.9252 934.408 18.8865 934.262 18.8728C934.12 18.8546 933.952 18.8455 933.756 18.8455H933.141V23.0085C933.141 23.2865 933.029 23.5281 932.806 23.7332V23.7468H935.868C936.616 23.7468 937.172 23.601 937.536 23.3093C937.901 23.0131 938.11 22.53 938.165 21.8601L938.261 20.739H938.5L938.233 24.533L938.11 24.5193L938.151 23.8767H938.138C938.042 23.9587 937.851 23.9998 937.563 23.9998H930.591V23.8767H931.124C931.498 23.8767 931.728 23.838 931.814 23.7605C931.906 23.6785 931.951 23.4688 931.951 23.1316V14.7986C931.951 14.4659 931.906 14.2608 931.814 14.1833C931.728 14.1013 931.498 14.0603 931.124 14.0603H930.591V13.9304H936.736C937.023 13.9304 937.21 13.9737 937.297 14.0603H937.324L937.27 13.4177L937.406 13.4041L937.687 17.198H937.406L937.352 16.2136C937.306 15.4799 937.09 14.9581 936.702 14.6482C936.315 14.3383 935.738 14.1833 934.973 14.1833H932.806V14.197C933.029 14.4021 933.141 14.6459 933.141 14.9285V18.5925H933.756C933.956 18.5925 934.127 18.5857 934.269 18.572C934.41 18.5538 934.558 18.5151 934.713 18.4558C934.868 18.3966 934.993 18.3168 935.089 18.2166C935.185 18.1117 935.264 17.9659 935.328 17.7791C935.392 17.5922 935.424 17.3689 935.424 17.1091V16.6238H935.561V21.115ZM944.201 23.9998V23.8767H944.481C944.855 23.8767 945.085 23.838 945.172 23.7605C945.263 23.6785 945.309 23.4688 945.309 23.1316V19.5906H944.133C944.119 20.9486 943.816 22.0424 943.224 22.8718C942.631 23.6967 941.852 24.1091 940.886 24.1091C940.225 24.1091 939.664 23.9291 939.204 23.5691V22.4617C939.933 22.9447 940.615 23.1863 941.248 23.1863C942.087 23.1863 942.727 22.8764 943.169 22.2566C943.616 21.6322 943.843 20.7436 943.853 19.5906C943.023 19.5906 942.292 19.4858 941.658 19.2761C941.025 19.0665 940.523 18.7475 940.154 18.3191C939.785 17.8861 939.601 17.3666 939.601 16.7605C939.601 16.1544 939.785 15.6371 940.154 15.2087C940.523 14.7758 941.025 14.4545 941.658 14.2449C942.292 14.0352 943.023 13.9304 943.853 13.9304H947.872V14.0603H947.325C946.951 14.0603 946.721 14.099 946.635 14.1765C946.553 14.254 946.512 14.4613 946.512 14.7986V23.1316C946.512 23.4688 946.555 23.6785 946.642 23.7605C946.728 23.838 946.956 23.8767 947.325 23.8767H947.872V23.9998H944.201ZM945.309 19.3376V14.9285C945.309 14.6049 945.397 14.3611 945.575 14.197V14.1833H943.982C942.998 14.1833 942.244 14.3884 941.72 14.7986C941.2 15.2087 940.94 15.8627 940.94 16.7605C940.94 17.6583 941.2 18.3123 941.72 18.7224C942.244 19.1326 942.998 19.3376 943.982 19.3376H945.309Z" fill="#4D4D4D"/>
<path d="M268.28 23.9998V23.8767H268.813C269.187 23.8767 269.417 23.838 269.504 23.7605C269.595 23.6785 269.641 23.4688 269.641 23.1316V14.7986C269.641 14.4659 269.595 14.2608 269.504 14.1833C269.417 14.1013 269.187 14.0603 268.813 14.0603H268.28V13.9304H274.063C274.182 13.9304 274.266 13.9395 274.316 13.9578C274.367 13.976 274.421 14.0102 274.48 14.0603H274.494L274.439 13.1101L274.583 13.0964L274.877 17.198H274.597L274.521 16.2136C274.503 15.849 274.417 15.5323 274.262 15.2634C274.111 14.9945 273.906 14.7826 273.646 14.6277C273.391 14.4727 273.106 14.3611 272.792 14.2927C272.478 14.2198 272.127 14.1833 271.739 14.1833H270.495V14.197C270.718 14.4021 270.83 14.6459 270.83 14.9285V23.1316C270.83 23.4643 270.876 23.6716 270.967 23.7537C271.062 23.8357 271.297 23.8767 271.671 23.8767H272.662V23.9998H268.28ZM275.8 13.9304H283.907V14.0603H283.36C283.005 14.0603 282.779 14.1173 282.684 14.2312C282.592 14.3406 282.547 14.573 282.547 14.9285V23.0085C282.547 23.364 282.592 23.5987 282.684 23.7126C282.779 23.822 283.005 23.8767 283.36 23.8767H283.907V23.9998H280.113V23.8767H280.53C280.881 23.8767 281.104 23.8197 281.2 23.7058C281.296 23.5919 281.344 23.3595 281.344 23.0085V14.1833H277.734V17.6013C277.734 18.4945 277.668 19.3399 277.536 20.1375C277.409 20.9304 277.235 21.6095 277.017 22.1746C276.802 22.7397 276.57 23.2182 276.319 23.6101C276.069 24.002 275.807 24.3005 275.533 24.5056L274.638 23.5691C274.884 23.3777 275.123 23.1589 275.355 22.9128C275.588 22.6622 275.825 22.3591 276.066 22.0037C276.312 21.6436 276.527 21.2654 276.709 20.8689C276.891 20.4724 277.039 20.019 277.153 19.5085C277.272 18.9936 277.333 18.4695 277.338 17.9363V15.0925C277.338 14.9148 277.333 14.7758 277.324 14.6755C277.32 14.5707 277.299 14.4773 277.263 14.3953C277.226 14.3087 277.188 14.2472 277.146 14.2107C277.105 14.1697 277.03 14.1378 276.921 14.115C276.816 14.0876 276.709 14.0717 276.6 14.0671C276.495 14.0626 276.34 14.0603 276.135 14.0603H275.8V13.9304ZM284.297 23.9998V23.8767H284.536C284.714 23.8767 284.864 23.8061 284.987 23.6648C285.11 23.519 285.245 23.3002 285.391 23.0085L289.718 13.9304H290.907V14.1013C290.907 14.4431 290.955 14.7143 291.051 14.9148L294.674 23.0085C294.842 23.3822 294.959 23.6056 295.022 23.6785C295.136 23.8106 295.323 23.8767 295.583 23.8767H295.713V23.9998H292.767V23.8767H293.949V23.8425C293.808 23.797 293.648 23.5782 293.471 23.1863L292.616 21.2722H286.512L285.685 23.0085C285.63 23.1544 285.603 23.2615 285.603 23.3298C285.603 23.4939 285.669 23.6261 285.801 23.7263C285.933 23.8266 286.113 23.8767 286.341 23.8767H287.1V23.9998H284.297ZM286.635 21.0193H292.507L289.889 15.1814C289.802 15.0037 289.759 14.8168 289.759 14.6208H289.622C289.622 14.7302 289.561 14.9171 289.438 15.1814L286.635 21.0193ZM298.427 23.7468H300.177C301.138 23.7468 301.911 23.503 302.494 23.0154C303.077 22.5278 303.369 21.8852 303.369 21.0876C303.369 20.2445 303.059 19.5541 302.439 19.0164C301.824 18.474 301.036 18.2029 300.074 18.2029H299.268V17.9636H299.883C300.566 17.9636 301.127 17.7882 301.564 17.4373C302.002 17.0818 302.221 16.6283 302.221 16.0769C302.221 15.5072 301.986 15.0492 301.517 14.7029C301.052 14.3565 300.437 14.1833 299.671 14.1833H298.427V14.197C298.595 14.352 298.68 14.5958 298.68 14.9285V23.0085C298.68 23.3276 298.595 23.5645 298.427 23.7195V23.7468ZM296.13 23.9998V23.863H296.663C297.037 23.863 297.267 23.8243 297.354 23.7468C297.445 23.6648 297.49 23.4552 297.49 23.1179V14.7986C297.49 14.4659 297.445 14.2608 297.354 14.1833C297.267 14.1013 297.037 14.0603 296.663 14.0603H296.13V13.9304H299.883C300.977 13.9304 301.858 14.1264 302.528 14.5183C303.198 14.9057 303.533 15.4161 303.533 16.0496C303.533 16.4825 303.333 16.8949 302.932 17.2869C302.531 17.6788 301.995 17.9181 301.325 18.0046V18.0662C301.808 18.0981 302.262 18.2074 302.686 18.3943C303.114 18.5766 303.472 18.809 303.759 19.0916C304.05 19.3695 304.278 19.684 304.442 20.0349C304.611 20.3813 304.695 20.7322 304.695 21.0876C304.695 21.6573 304.506 22.1654 304.128 22.6121C303.754 23.0587 303.246 23.4028 302.604 23.6443C301.965 23.8813 301.25 23.9998 300.457 23.9998H296.13ZM305.249 23.9998V23.8767H305.782C306.142 23.8767 306.37 23.8197 306.466 23.7058C306.562 23.5919 306.609 23.3595 306.609 23.0085V14.9285C306.609 14.5776 306.562 14.3451 306.466 14.2312C306.37 14.1173 306.142 14.0603 305.782 14.0603H305.249V13.9304H309.029V14.0603H308.64C308.28 14.0603 308.049 14.1173 307.949 14.2312C307.849 14.3451 307.799 14.5776 307.799 14.9285V18.5789H312.023V14.9285C312.023 14.5776 311.973 14.3451 311.873 14.2312C311.773 14.1173 311.543 14.0603 311.183 14.0603H310.793V13.9304H314.587V14.0603H314.04C313.685 14.0603 313.459 14.1173 313.363 14.2312C313.272 14.3406 313.227 14.573 313.227 14.9285V23.0085C313.227 23.364 313.272 23.5987 313.363 23.7126C313.459 23.822 313.685 23.8767 314.04 23.8767H314.587V23.9998H310.793V23.8767H311.21C311.561 23.8767 311.784 23.8197 311.88 23.7058C311.976 23.5919 312.023 23.3595 312.023 23.0085V18.8318H307.799V23.0085C307.799 23.3595 307.849 23.5919 307.949 23.7058C308.049 23.8197 308.28 23.8767 308.64 23.8767H309.029V23.9998H305.249ZM314.977 23.9998V23.8767H315.216C315.394 23.8767 315.544 23.8061 315.667 23.6648C315.79 23.519 315.924 23.3002 316.07 23.0085L320.397 13.9304H321.587V14.1013C321.587 14.4431 321.635 14.7143 321.73 14.9148L325.354 23.0085C325.522 23.3822 325.638 23.6056 325.702 23.6785C325.816 23.8106 326.003 23.8767 326.263 23.8767H326.393V23.9998H323.446V23.8767H324.629V23.8425C324.488 23.797 324.328 23.5782 324.15 23.1863L323.296 21.2722H317.191L316.364 23.0085C316.31 23.1544 316.282 23.2615 316.282 23.3298C316.282 23.4939 316.348 23.6261 316.48 23.7263C316.613 23.8266 316.793 23.8767 317.021 23.8767H317.779V23.9998H314.977ZM317.314 21.0193H323.187L320.568 15.1814C320.482 15.0037 320.438 14.8168 320.438 14.6208H320.302C320.302 14.7302 320.24 14.9171 320.117 15.1814L317.314 21.0193ZM331.916 23.9998V23.8767H332.196C332.57 23.8767 332.8 23.838 332.887 23.7605C332.978 23.6785 333.023 23.4688 333.023 23.1316V19.5906H331.848C331.834 20.9486 331.531 22.0424 330.938 22.8718C330.346 23.6967 329.567 24.1091 328.601 24.1091C327.94 24.1091 327.379 23.9291 326.919 23.5691V22.4617C327.648 22.9447 328.329 23.1863 328.963 23.1863C329.801 23.1863 330.442 22.8764 330.884 22.2566C331.33 21.6322 331.558 20.7436 331.567 19.5906C330.738 19.5906 330.007 19.4858 329.373 19.2761C328.74 19.0665 328.238 18.7475 327.869 18.3191C327.5 17.8861 327.315 17.3666 327.315 16.7605C327.315 16.1544 327.5 15.6371 327.869 15.2087C328.238 14.7758 328.74 14.4545 329.373 14.2449C330.007 14.0352 330.738 13.9304 331.567 13.9304H335.587V14.0603H335.04C334.666 14.0603 334.436 14.099 334.35 14.1765C334.268 14.254 334.227 14.4613 334.227 14.7986V23.1316C334.227 23.4688 334.27 23.6785 334.356 23.7605C334.443 23.838 334.671 23.8767 335.04 23.8767H335.587V23.9998H331.916ZM333.023 19.3376V14.9285C333.023 14.6049 333.112 14.3611 333.29 14.197V14.1833H331.697C330.713 14.1833 329.959 14.3884 329.435 14.7986C328.915 15.2087 328.655 15.8627 328.655 16.7605C328.655 17.6583 328.915 18.3123 329.435 18.7224C329.959 19.1326 330.713 19.3376 331.697 19.3376H333.023Z" fill="#4D4D4D"/>
<path d="M481.187 24.1091C480.052 24.1091 479.051 23.8972 478.186 23.4734C477.324 23.045 476.657 22.4412 476.183 21.6619C475.713 20.8826 475.479 19.9825 475.479 18.9617C475.479 17.4213 476 16.1794 477.044 15.2361C478.092 14.2927 479.473 13.821 481.187 13.821C482.312 13.821 483.306 14.0352 484.167 14.4636C485.028 14.8875 485.694 15.489 486.163 16.2683C486.637 17.0476 486.874 17.9454 486.874 18.9617C486.874 19.9825 486.637 20.8826 486.163 21.6619C485.694 22.4412 485.028 23.045 484.167 23.4734C483.306 23.8972 482.312 24.1091 481.187 24.1091ZM481.241 23.863C482.636 23.863 483.698 23.4666 484.427 22.6736C485.16 21.8806 485.527 20.7322 485.527 19.2283C485.527 17.5557 485.151 16.2797 484.399 15.4001C483.647 14.516 482.558 14.074 481.132 14.074C479.733 14.074 478.664 14.4705 477.926 15.2634C477.188 16.0564 476.818 17.2048 476.818 18.7087C476.818 20.3813 477.194 21.6596 477.946 22.5437C478.703 23.4233 479.801 23.863 481.241 23.863ZM491.728 23.9998V23.8767H492.261C492.634 23.8767 492.865 23.838 492.951 23.7605C493.042 23.6785 493.088 23.4688 493.088 23.1316V14.7986C493.088 14.4659 493.042 14.2608 492.951 14.1833C492.865 14.1013 492.634 14.0603 492.261 14.0603H491.728V13.9304H497.511C497.629 13.9304 497.714 13.9395 497.764 13.9578C497.814 13.976 497.868 14.0102 497.928 14.0603H497.941L497.887 13.1101L498.03 13.0964L498.324 17.198H498.044L497.969 16.2136C497.951 15.849 497.864 15.5323 497.709 15.2634C497.559 14.9945 497.354 14.7826 497.094 14.6277C496.839 14.4727 496.554 14.3611 496.239 14.2927C495.925 14.2198 495.574 14.1833 495.187 14.1833H493.942V14.197C494.166 14.4021 494.277 14.6459 494.277 14.9285V23.1316C494.277 23.4643 494.323 23.6716 494.414 23.7537C494.51 23.8357 494.744 23.8767 495.118 23.8767H496.109V23.9998H491.728ZM501.202 14.197V14.2722C501.371 14.4773 501.455 14.7667 501.455 15.1404V19.8298H502.323C503.294 19.8298 504.032 19.5906 504.538 19.1121C505.049 18.629 505.304 17.9294 505.304 17.0134C505.304 16.0974 505.049 15.4001 504.538 14.9216C504.032 14.4386 503.294 14.197 502.323 14.197H501.202ZM498.905 23.9998V23.8767H499.438C499.812 23.8767 500.042 23.838 500.129 23.7605C500.22 23.6785 500.266 23.4688 500.266 23.1316V14.7986C500.266 14.4659 500.22 14.2608 500.129 14.1833C500.042 14.1013 499.812 14.0603 499.438 14.0603H498.905V13.9304H502.781C503.943 13.9304 504.878 14.213 505.584 14.7781C506.295 15.3432 506.65 16.0883 506.65 17.0134C506.65 17.9294 506.295 18.67 505.584 19.2351C504.878 19.8002 503.943 20.0828 502.781 20.0828H501.455V23.1316C501.455 23.4643 501.501 23.6716 501.592 23.7537C501.688 23.8357 501.922 23.8767 502.296 23.8767H502.672V23.9998H498.905ZM508.913 24.1091C508.394 24.1091 508.134 23.7423 508.134 23.0085C508.485 23.0723 508.77 23.1042 508.988 23.1042C509.526 23.1042 509.934 23.0108 510.212 22.824C510.49 22.6326 510.715 22.3477 510.889 21.9695L511.019 21.7029C511.064 21.5981 511.087 21.4773 511.087 21.3406C511.087 21.2084 511.048 21.0671 510.971 20.9167L508.12 14.9285C508.024 14.7234 507.958 14.5844 507.922 14.5115C507.885 14.4386 507.828 14.3565 507.751 14.2654C507.678 14.1742 507.601 14.1173 507.519 14.0945C507.437 14.0717 507.327 14.0603 507.19 14.0603H506.958V13.9304H509.938V14.0603H508.831V14.0876C508.986 14.1332 509.159 14.352 509.351 14.7439L511.559 19.3376C511.636 19.4972 511.675 19.6931 511.675 19.9255V19.9529L511.784 19.9255L513.944 14.9285C514.008 14.7462 514.04 14.6003 514.04 14.491C514.04 14.2039 513.787 14.0603 513.281 14.0603H512.584V13.9304H515.229V14.0466H515.134C515.006 14.0466 514.901 14.0603 514.819 14.0876C514.737 14.1104 514.662 14.1651 514.594 14.2517C514.53 14.3337 514.48 14.4089 514.443 14.4773C514.411 14.5457 514.359 14.6687 514.286 14.8464C514.282 14.8556 514.277 14.8647 514.272 14.8738C514.272 14.8783 514.27 14.8875 514.266 14.9011C514.261 14.9102 514.257 14.9194 514.252 14.9285L510.984 22.407C510.743 22.9584 510.438 23.38 510.068 23.6716C509.704 23.9633 509.319 24.1091 508.913 24.1091ZM515.64 23.9998V23.8767H516.173C516.533 23.8767 516.761 23.8197 516.856 23.7058C516.952 23.5919 517 23.3595 517 23.0085V14.9285C517 14.5776 516.952 14.3451 516.856 14.2312C516.761 14.1173 516.533 14.0603 516.173 14.0603H515.64V13.9304H524.978V14.0603H524.431C524.075 14.0603 523.85 14.1173 523.754 14.2312C523.663 14.3406 523.617 14.573 523.617 14.9285V23.0085C523.617 23.364 523.663 23.5987 523.754 23.7126C523.85 23.822 524.075 23.8767 524.431 23.8767H524.978V23.9998H521.184V23.8767H521.601C521.951 23.8767 522.175 23.8197 522.271 23.7058C522.366 23.5919 522.414 23.3595 522.414 23.0085V14.1833H518.189V23.0085C518.189 23.3595 518.24 23.5919 518.34 23.7058C518.44 23.8197 518.67 23.8767 519.03 23.8767H519.42V23.9998H515.64ZM525.524 23.9998V23.8767H526.058C526.418 23.8767 526.646 23.8197 526.741 23.7058C526.837 23.5919 526.885 23.3595 526.885 23.0085V14.9285C526.885 14.5776 526.837 14.3451 526.741 14.2312C526.646 14.1173 526.418 14.0603 526.058 14.0603H525.524V13.9304H534.862V14.0603H534.315C533.96 14.0603 533.734 14.1173 533.639 14.2312C533.548 14.3406 533.502 14.573 533.502 14.9285V23.0085C533.502 23.364 533.548 23.5987 533.639 23.7126C533.734 23.822 533.96 23.8767 534.315 23.8767H534.862V23.9998H531.068V23.8767H531.485C531.836 23.8767 532.06 23.8197 532.155 23.7058C532.251 23.5919 532.299 23.3595 532.299 23.0085V14.1833H528.074V23.0085C528.074 23.3595 528.124 23.5919 528.225 23.7058C528.325 23.8197 528.555 23.8767 528.915 23.8767H529.305V23.9998H525.524ZM540.379 21.115H540.242V20.3425C540.242 20.0828 540.21 19.8595 540.146 19.6726C540.083 19.4858 540.003 19.3399 539.907 19.2351C539.812 19.1303 539.686 19.0483 539.531 18.989C539.376 18.9252 539.226 18.8865 539.08 18.8728C538.939 18.8546 538.77 18.8455 538.574 18.8455H537.959V23.0085C537.959 23.2865 537.847 23.5281 537.624 23.7332V23.7468H540.687C541.434 23.7468 541.99 23.601 542.354 23.3093C542.719 23.0131 542.929 22.53 542.983 21.8601L543.079 20.739H543.318L543.052 24.533L542.929 24.5193L542.97 23.8767H542.956C542.86 23.9587 542.669 23.9998 542.382 23.9998H535.409V23.8767H535.942C536.316 23.8767 536.546 23.838 536.633 23.7605C536.724 23.6785 536.77 23.4688 536.77 23.1316V14.7986C536.77 14.4659 536.724 14.2608 536.633 14.1833C536.546 14.1013 536.316 14.0603 535.942 14.0603H535.409V13.9304H541.555C541.842 13.9304 542.029 13.9737 542.115 14.0603H542.143L542.088 13.4177L542.225 13.4041L542.505 17.198H542.225L542.17 16.2136C542.124 15.4799 541.908 14.9581 541.521 14.6482C541.133 14.3383 540.557 14.1833 539.791 14.1833H537.624V14.197C537.847 14.4021 537.959 14.6459 537.959 14.9285V18.5925H538.574C538.775 18.5925 538.946 18.5857 539.087 18.572C539.228 18.5538 539.376 18.5151 539.531 18.4558C539.686 18.3966 539.812 18.3168 539.907 18.2166C540.003 18.1117 540.083 17.9659 540.146 17.7791C540.21 17.5922 540.242 17.3689 540.242 17.1091V16.6238H540.379V21.115Z" fill="#4D4D4D"/>
<path d="M686.565 23.9998V23.8767H687.741C688.11 23.8767 688.338 23.838 688.425 23.7605C688.511 23.6785 688.555 23.4688 688.555 23.1316V14.1833H687.632C687.24 14.1833 686.925 14.2039 686.688 14.2449C686.451 14.2859 686.246 14.3656 686.073 14.4841C685.9 14.6026 685.775 14.7667 685.697 14.9763C685.624 15.1814 685.579 15.4548 685.561 15.7966L685.506 16.3708L685.226 16.3572L685.465 13.1101L685.629 13.1238L685.561 13.9304H692.725L692.656 13.1375L692.827 13.1238L693.053 16.3572L692.772 16.3708L692.725 15.7966C692.697 15.4548 692.645 15.1814 692.567 14.9763C692.49 14.7712 692.365 14.6095 692.191 14.491C692.023 14.3679 691.82 14.2859 691.583 14.2449C691.351 14.2039 691.041 14.1833 690.653 14.1833H689.758V23.1316C689.758 23.4688 689.801 23.6785 689.888 23.7605C689.974 23.838 690.202 23.8767 690.571 23.8767H691.72V23.9998H686.565ZM692.314 23.9998V23.8767H692.554C692.731 23.8767 692.882 23.8061 693.005 23.6648C693.128 23.519 693.262 23.3002 693.408 23.0085L697.735 13.9304H698.925V14.1013C698.925 14.4431 698.973 14.7143 699.068 14.9148L702.691 23.0085C702.86 23.3822 702.976 23.6056 703.04 23.6785C703.154 23.8106 703.341 23.8767 703.601 23.8767H703.73V23.9998H700.784V23.8767H701.967V23.8425C701.826 23.797 701.666 23.5782 701.488 23.1863L700.634 21.2722H694.529L693.702 23.0085C693.647 23.1544 693.62 23.2615 693.62 23.3298C693.62 23.4939 693.686 23.6261 693.818 23.7263C693.951 23.8266 694.131 23.8767 694.358 23.8767H695.117V23.9998H692.314ZM694.652 21.0193H700.524L697.906 15.1814C697.82 15.0037 697.776 14.8168 697.776 14.6208H697.64C697.64 14.7302 697.578 14.9171 697.455 15.1814L694.652 21.0193ZM706.444 14.197V14.2722C706.613 14.4773 706.697 14.7667 706.697 15.1404V19.8298H707.565C708.536 19.8298 709.274 19.5906 709.78 19.1121C710.291 18.629 710.546 17.9294 710.546 17.0134C710.546 16.0974 710.291 15.4001 709.78 14.9216C709.274 14.4386 708.536 14.197 707.565 14.197H706.444ZM704.147 23.9998V23.8767H704.681C705.054 23.8767 705.285 23.838 705.371 23.7605C705.462 23.6785 705.508 23.4688 705.508 23.1316V14.7986C705.508 14.4659 705.462 14.2608 705.371 14.1833C705.285 14.1013 705.054 14.0603 704.681 14.0603H704.147V13.9304H708.023C709.186 13.9304 710.12 14.213 710.826 14.7781C711.537 15.3432 711.893 16.0883 711.893 17.0134C711.893 17.9294 711.537 18.67 710.826 19.2351C710.12 19.8002 709.186 20.0828 708.023 20.0828H706.697V23.1316C706.697 23.4643 706.743 23.6716 706.834 23.7537C706.93 23.8357 707.164 23.8767 707.538 23.8767H707.914V23.9998H704.147ZM712.569 23.9998V23.8767H713.103C713.463 23.8767 713.69 23.8197 713.786 23.7058C713.882 23.5919 713.93 23.3595 713.93 23.0085V14.9285C713.93 14.5776 713.882 14.3451 713.786 14.2312C713.69 14.1173 713.463 14.0603 713.103 14.0603H712.569V13.9304H716.35V14.0603H715.96C715.6 14.0603 715.37 14.1173 715.27 14.2312C715.169 14.3451 715.119 14.5776 715.119 14.9285V23.0496L719.501 13.9304H721.907V14.0603H721.36C721.005 14.0603 720.779 14.1173 720.684 14.2312C720.592 14.3406 720.547 14.573 720.547 14.9285V23.0085C720.547 23.364 720.592 23.5987 720.684 23.7126C720.779 23.822 721.005 23.8767 721.36 23.8767H721.907V23.9998H718.113V23.8767H718.53C718.881 23.8767 719.104 23.8197 719.2 23.7058C719.296 23.5919 719.344 23.3595 719.344 23.0085V14.8875L714.962 23.9998H712.569ZM726.385 23.9998V23.8904H726.932C727.305 23.8904 727.533 23.8539 727.615 23.781C727.702 23.7035 727.745 23.4962 727.745 23.1589V22.6667C726.2 22.5802 724.965 22.2042 724.04 21.5388C723.115 20.8689 722.652 20.0144 722.652 18.9753C722.652 17.9363 723.115 17.0841 724.04 16.4187C724.965 15.7533 726.2 15.3774 727.745 15.2908V14.7986C727.745 14.4659 727.702 14.2631 727.615 14.1902C727.533 14.1127 727.305 14.074 726.932 14.074H726.385V13.9509H730.322V14.1013H729.775C729.406 14.1013 729.176 14.1401 729.085 14.2175C728.994 14.295 728.948 14.5001 728.948 14.8328V15.2908C730.493 15.3682 731.728 15.7397 732.653 16.405C733.583 17.0704 734.048 17.9226 734.048 18.9617C734.048 20.0098 733.583 20.8689 732.653 21.5388C731.728 22.2042 730.493 22.5756 728.948 22.6531V23.1453C728.948 23.4779 728.994 23.683 729.085 23.7605C729.176 23.838 729.406 23.8767 729.775 23.8767H730.322V23.9998H726.385ZM728.948 15.5574V22.4207C730.092 22.3341 731.004 22.0059 731.683 21.4363C732.362 20.8621 732.701 20.1306 732.701 19.2419C732.701 18.2211 732.362 17.3803 731.683 16.7195C731.004 16.0587 730.092 15.6713 728.948 15.5574ZM727.745 22.407V15.5574C726.601 15.644 725.69 15.9744 725.011 16.5486C724.332 17.1182 723.992 17.8474 723.992 18.7361C723.992 19.7478 724.332 20.5841 725.011 21.2449C725.69 21.9057 726.601 22.2931 727.745 22.407ZM742.641 23.9998V23.8767H743.174C743.548 23.8767 743.775 23.8403 743.857 23.7673C743.939 23.6899 743.98 23.4825 743.98 23.1453V14.7849C743.98 14.4522 743.939 14.2494 743.857 14.1765C743.775 14.099 743.548 14.0603 743.174 14.0603H742.641V13.9304H746.558V14.0876H746.024C745.651 14.0876 745.418 14.1264 745.327 14.2039C745.236 14.2813 745.19 14.4864 745.19 14.8191V23.1453C745.19 23.4779 745.236 23.683 745.327 23.7605C745.418 23.838 745.651 23.8767 746.024 23.8767H746.558V23.9998H742.641ZM734.8 23.9998V23.863H735.333C735.707 23.863 735.937 23.8243 736.023 23.7468C736.115 23.6648 736.16 23.4552 736.16 23.1179V14.7849C736.16 14.4522 736.115 14.2494 736.023 14.1765C735.937 14.099 735.707 14.0603 735.333 14.0603H734.8V13.9304H738.717V14.0603H738.19C737.817 14.0603 737.582 14.1036 737.486 14.1902C737.395 14.2722 737.35 14.4819 737.35 14.8191V18.8181H738.525C739.701 18.8181 740.647 19.0574 741.362 19.5359C742.082 20.0098 742.442 20.6342 742.442 21.4089C742.442 22.1837 742.082 22.8103 741.362 23.2888C740.647 23.7628 739.701 23.9998 738.525 23.9998H734.8ZM737.35 19.0574V23.0085C737.35 23.3276 737.265 23.5645 737.097 23.7195V23.7468H738.231C739.17 23.7468 739.886 23.5486 740.378 23.1521C740.87 22.7511 741.116 22.17 741.116 21.4089C741.116 20.6479 740.868 20.0668 740.371 19.6658C739.879 19.2602 739.166 19.0574 738.231 19.0574H737.35Z" fill="#4D4D4D"/>
<path d="M1102.17 22.2908C1100.78 22.2908 1099.66 21.9034 1098.81 21.1287C1097.96 20.3539 1097.54 19.3285 1097.54 18.0525C1097.54 16.781 1097.96 15.7579 1098.81 14.9832C1099.66 14.2084 1100.78 13.821 1102.17 13.821C1103.55 13.821 1104.66 14.2107 1105.5 14.99C1106.35 15.7647 1106.77 16.7856 1106.77 18.0525C1106.77 19.324 1106.35 20.3494 1105.51 21.1287C1104.66 21.9034 1103.55 22.2908 1102.17 22.2908ZM1102.21 22.0378C1103.26 22.0378 1104.05 21.7211 1104.6 21.0876C1105.14 20.4496 1105.42 19.5268 1105.42 18.3191C1105.42 16.9428 1105.13 15.8923 1104.56 15.1677C1103.99 14.4386 1103.17 14.074 1102.1 14.074C1101.05 14.074 1100.25 14.393 1099.7 15.031C1099.15 15.6645 1098.88 16.5873 1098.88 17.7996C1098.88 19.1759 1099.16 20.2263 1099.73 20.9509C1100.3 21.6755 1101.13 22.0378 1102.21 22.0378ZM1088.27 23.9998L1088.28 23.8425H1088.81C1089.19 23.8425 1089.42 23.797 1089.5 23.7058C1089.6 23.6101 1089.64 23.3663 1089.64 22.9744V14.7712C1089.64 14.4386 1089.6 14.2335 1089.5 14.156C1089.42 14.074 1089.19 14.033 1088.81 14.033H1088.28V13.9031H1091.81V14.033H1091.67C1091.29 14.033 1091.06 14.0717 1090.97 14.1492C1090.88 14.2221 1090.83 14.4203 1090.83 14.7439V17.9226C1091.14 17.9226 1091.36 17.9112 1091.51 17.8884C1091.66 17.8611 1091.77 17.8064 1091.83 17.7244L1094.28 14.9421C1094.44 14.7416 1094.52 14.5639 1094.52 14.4089C1094.52 14.1583 1094.26 14.033 1093.73 14.033H1093.58V13.9031H1097.07V14.033H1096.8C1096.41 14.033 1096.01 14.1082 1095.6 14.2585C1095.19 14.4089 1094.84 14.655 1094.55 14.9968L1092.1 17.8132L1092.12 17.8679C1092.41 17.9272 1092.68 18.0229 1092.95 18.155C1093.21 18.2826 1093.46 18.4467 1093.7 18.6472C1093.94 18.8477 1094.16 19.0483 1094.34 19.2488C1094.53 19.4447 1094.74 19.684 1094.97 19.9666C1095.08 20.0987 1095.23 20.2878 1095.42 20.5339C1095.62 20.7755 1095.77 20.9737 1095.89 21.1287C1096.01 21.2791 1096.17 21.4705 1096.37 21.7029C1096.57 21.9307 1096.74 22.1199 1096.89 22.2703C1097.04 22.4207 1097.23 22.5916 1097.45 22.783C1097.68 22.9744 1097.89 23.1339 1098.09 23.2615C1098.29 23.3845 1098.52 23.5121 1098.79 23.6443C1099.06 23.7764 1099.32 23.8813 1099.59 23.9587C1099.86 24.0317 1100.16 24.0909 1100.49 24.1365C1100.82 24.1866 1101.16 24.2117 1101.51 24.2117C1102.06 24.2117 1102.61 24.1501 1103.17 24.0271C1103.73 23.9041 1104.22 23.7491 1104.64 23.5623C1105.06 23.3708 1105.41 23.2 1105.68 23.0496C1105.95 22.8992 1106.17 22.7625 1106.33 22.6394L1106.66 22.3728L1106.74 22.4753L1106.4 22.7419C1105.78 23.2341 1104.97 23.6739 1103.98 24.0613C1103 24.4486 1101.99 24.6423 1100.95 24.6423C1100.44 24.6423 1099.95 24.5945 1099.48 24.4988C1099.01 24.4076 1098.59 24.2937 1098.23 24.157C1097.86 24.0203 1097.5 23.8334 1097.13 23.5964C1096.76 23.3549 1096.45 23.1316 1096.2 22.9265C1095.95 22.7214 1095.67 22.4571 1095.36 22.1335C1095.06 21.8054 1094.82 21.5365 1094.65 21.3269C1094.48 21.1173 1094.26 20.8416 1094 20.4998C1093.4 19.7432 1092.98 19.2419 1092.74 18.9958C1092.17 18.408 1091.63 18.0981 1091.1 18.0662C1091.07 18.0662 1091.04 18.0662 1091.01 18.0662H1090.82V23.0632C1090.82 23.4233 1090.86 23.6488 1090.96 23.74C1091.06 23.8311 1091.29 23.8767 1091.66 23.8767H1092.18V23.9998H1088.27ZM1107.53 23.9998V23.8767H1108.06C1108.42 23.8767 1108.65 23.8197 1108.75 23.7058C1108.84 23.5919 1108.89 23.3595 1108.89 23.0085V14.9285C1108.89 14.5776 1108.84 14.3451 1108.75 14.2312C1108.65 14.1173 1108.42 14.0603 1108.06 14.0603H1107.53V13.9304H1111.31V14.0603H1110.92C1110.56 14.0603 1110.33 14.1173 1110.23 14.2312C1110.13 14.3451 1110.08 14.5776 1110.08 14.9285V18.5789H1114.3V14.9285C1114.3 14.5776 1114.25 14.3451 1114.15 14.2312C1114.05 14.1173 1113.82 14.0603 1113.46 14.0603H1113.07V13.9304H1116.87V14.0603H1116.32C1115.97 14.0603 1115.74 14.1173 1115.64 14.2312C1115.55 14.3406 1115.51 14.573 1115.51 14.9285V23.0085C1115.51 23.364 1115.55 23.5987 1115.64 23.7126C1115.74 23.822 1115.97 23.8767 1116.32 23.8767H1116.87V23.9998H1113.07V23.8767H1113.49C1113.84 23.8767 1114.07 23.8197 1114.16 23.7058C1114.26 23.5919 1114.3 23.3595 1114.3 23.0085V18.8318H1110.08V23.0085C1110.08 23.3595 1110.13 23.5919 1110.23 23.7058C1110.33 23.8197 1110.56 23.8767 1110.92 23.8767H1111.31V23.9998H1107.53ZM1118.7 23.9998V23.8767H1119.88C1120.25 23.8767 1120.47 23.838 1120.56 23.7605C1120.65 23.6785 1120.69 23.4688 1120.69 23.1316V14.1833H1119.77C1119.37 14.1833 1119.06 14.2039 1118.82 14.2449C1118.59 14.2859 1118.38 14.3656 1118.21 14.4841C1118.03 14.6026 1117.91 14.7667 1117.83 14.9763C1117.76 15.1814 1117.71 15.4548 1117.7 15.7966L1117.64 16.3708L1117.36 16.3572L1117.6 13.1101L1117.76 13.1238L1117.7 13.9304H1124.86L1124.79 13.1375L1124.96 13.1238L1125.19 16.3572L1124.91 16.3708L1124.86 15.7966C1124.83 15.4548 1124.78 15.1814 1124.7 14.9763C1124.62 14.7712 1124.5 14.6095 1124.33 14.491C1124.16 14.3679 1123.95 14.2859 1123.72 14.2449C1123.49 14.2039 1123.18 14.1833 1122.79 14.1833H1121.89V23.1316C1121.89 23.4688 1121.94 23.6785 1122.02 23.7605C1122.11 23.838 1122.34 23.8767 1122.71 23.8767H1123.85V23.9998H1118.7ZM1124.45 23.9998V23.8767H1124.69C1124.87 23.8767 1125.02 23.8061 1125.14 23.6648C1125.26 23.519 1125.4 23.3002 1125.54 23.0085L1129.87 13.9304H1131.06V14.1013C1131.06 14.4431 1131.11 14.7143 1131.2 14.9148L1134.83 23.0085C1134.99 23.3822 1135.11 23.6056 1135.17 23.6785C1135.29 23.8106 1135.48 23.8767 1135.74 23.8767H1135.87V23.9998H1132.92V23.8767H1134.1V23.8425C1133.96 23.797 1133.8 23.5782 1133.62 23.1863L1132.77 21.2722H1126.66L1125.84 23.0085C1125.78 23.1544 1125.75 23.2615 1125.75 23.3298C1125.75 23.4939 1125.82 23.6261 1125.95 23.7263C1126.09 23.8266 1126.27 23.8767 1126.49 23.8767H1127.25V23.9998H1124.45ZM1126.79 21.0193H1132.66L1130.04 15.1814C1129.95 15.0037 1129.91 14.8168 1129.91 14.6208H1129.77C1129.77 14.7302 1129.71 14.9171 1129.59 15.1814L1126.79 21.0193ZM1136.28 23.9998L1136.32 23.8767H1136.87C1137.23 23.8767 1137.46 23.8311 1137.55 23.74C1137.64 23.6443 1137.68 23.4005 1137.68 23.0085V14.7986C1137.68 14.4659 1137.64 14.2608 1137.55 14.1833C1137.46 14.1013 1137.23 14.0603 1136.87 14.0603H1136.32V13.9304H1139.85V14.0603H1139.71C1139.34 14.0603 1139.11 14.1013 1139.02 14.1833C1138.93 14.2608 1138.89 14.4659 1138.89 14.7986V17.95C1139.19 17.95 1139.42 17.9386 1139.56 17.9158C1139.71 17.893 1139.81 17.8406 1139.88 17.7585L1142.32 14.9695C1142.5 14.7507 1142.58 14.573 1142.58 14.4363C1142.58 14.1856 1142.32 14.0603 1141.79 14.0603H1141.64V13.9304H1145.05V14.0603H1144.85C1144.46 14.0603 1144.06 14.1355 1143.65 14.2859C1143.25 14.4363 1142.89 14.6824 1142.6 15.0242L1140.14 17.8406L1140.16 17.8953C1140.62 17.991 1141.03 18.1391 1141.38 18.3396C1141.72 18.5356 1142 18.7725 1142.2 19.0505C1142.41 19.324 1142.57 19.5997 1142.68 19.8777C1142.8 20.1511 1142.89 20.461 1142.96 20.8074C1143 20.9897 1143.03 21.2016 1143.06 21.4431C1143.1 21.6847 1143.13 21.8943 1143.15 22.072C1143.18 22.2452 1143.2 22.4298 1143.24 22.6257C1143.28 22.8171 1143.32 22.9789 1143.37 23.1111C1143.42 23.2432 1143.49 23.3663 1143.56 23.4802C1143.64 23.5942 1143.75 23.6785 1143.87 23.7332C1143.99 23.7878 1144.14 23.8152 1144.3 23.8152C1144.52 23.8152 1144.77 23.7218 1145.03 23.5349L1145.23 23.3982L1145.31 23.4939L1145.11 23.6375C1144.69 23.9838 1144.27 24.157 1143.86 24.157C1143.56 24.157 1143.31 24.1 1143.09 23.9861C1142.87 23.8676 1142.7 23.7445 1142.57 23.6169C1142.45 23.4848 1142.33 23.2638 1142.22 22.9539C1142.11 22.6394 1142.03 22.4024 1141.99 22.2429C1141.95 22.0834 1141.9 21.7986 1141.82 21.3884C1141.78 21.1925 1141.75 21.0466 1141.73 20.9509C1141.66 20.6091 1141.58 20.3197 1141.51 20.0828C1141.44 19.8458 1141.34 19.5929 1141.2 19.324C1141.06 19.0505 1140.9 18.8318 1140.72 18.6677C1140.54 18.4991 1140.31 18.3601 1140.01 18.2507C1139.73 18.1368 1139.4 18.0798 1139.02 18.0798H1138.83V23.0085C1138.83 23.4005 1138.88 23.6443 1138.97 23.74C1139.06 23.8311 1139.3 23.8767 1139.67 23.8767H1140.2V23.9998H1136.28ZM1146.4 23.9998V23.8767H1147.58C1147.94 23.8767 1148.17 23.838 1148.26 23.7605C1148.35 23.6785 1148.39 23.4688 1148.39 23.1316V14.1833H1147.47C1147.07 14.1833 1146.76 14.2039 1146.52 14.2449C1146.29 14.2859 1146.08 14.3656 1145.91 14.4841C1145.73 14.6026 1145.61 14.7667 1145.53 14.9763C1145.46 15.1814 1145.41 15.4548 1145.39 15.7966L1145.34 16.3708L1145.06 16.3572L1145.3 13.1101L1145.46 13.1238L1145.39 13.9304H1152.56L1152.49 13.1375L1152.66 13.1238L1152.89 16.3572L1152.61 16.3708L1152.56 15.7966C1152.53 15.4548 1152.48 15.1814 1152.4 14.9763C1152.32 14.7712 1152.2 14.6095 1152.03 14.491C1151.86 14.3679 1151.65 14.2859 1151.42 14.2449C1151.18 14.2039 1150.87 14.1833 1150.49 14.1833H1149.59V23.1316C1149.59 23.4688 1149.64 23.6785 1149.72 23.7605C1149.81 23.838 1150.04 23.8767 1150.41 23.8767H1151.55V23.9998H1146.4ZM1161.24 23.9998V23.8767H1161.77C1162.15 23.8767 1162.38 23.8403 1162.46 23.7673C1162.54 23.6899 1162.58 23.4825 1162.58 23.1453V14.7849C1162.58 14.4522 1162.54 14.2494 1162.46 14.1765C1162.38 14.099 1162.15 14.0603 1161.77 14.0603H1161.24V13.9304H1165.16V14.0876H1164.62C1164.25 14.0876 1164.02 14.1264 1163.93 14.2039C1163.84 14.2813 1163.79 14.4864 1163.79 14.8191V23.1453C1163.79 23.4779 1163.84 23.683 1163.93 23.7605C1164.02 23.838 1164.25 23.8767 1164.62 23.8767H1165.16V23.9998H1161.24ZM1153.4 23.9998V23.863H1153.93C1154.31 23.863 1154.54 23.8243 1154.62 23.7468C1154.71 23.6648 1154.76 23.4552 1154.76 23.1179V14.7849C1154.76 14.4522 1154.71 14.2494 1154.62 14.1765C1154.54 14.099 1154.31 14.0603 1153.93 14.0603H1153.4V13.9304H1157.32V14.0603H1156.79C1156.42 14.0603 1156.18 14.1036 1156.09 14.1902C1155.99 14.2722 1155.95 14.4819 1155.95 14.8191V18.8181H1157.12C1158.3 18.8181 1159.25 19.0574 1159.96 19.5359C1160.68 20.0098 1161.04 20.6342 1161.04 21.4089C1161.04 22.1837 1160.68 22.8103 1159.96 23.2888C1159.25 23.7628 1158.3 23.9998 1157.12 23.9998H1153.4ZM1155.95 19.0574V23.0085C1155.95 23.3276 1155.86 23.5645 1155.7 23.7195V23.7468H1156.83C1157.77 23.7468 1158.49 23.5486 1158.98 23.1521C1159.47 22.7511 1159.72 22.17 1159.72 21.4089C1159.72 20.6479 1159.47 20.0668 1158.97 19.6658C1158.48 19.2602 1157.77 19.0574 1156.83 19.0574H1155.95Z" fill="#4D4D4D"/>
<path d="M14.433 19.7216C14.4881 19.6297 14.5984 19.6205 14.7638 19.694C14.9476 19.7491 15.1038 19.841 15.2324 19.9697C15.3795 20.0983 15.4346 20.2086 15.3978 20.3005C14.5341 22.1016 13.5508 23.5259 12.4481 24.5734C11.3638 25.6026 10.2611 26.1172 9.14 26.1172C8.05568 26.1172 7.28378 25.6302 6.82433 24.6561C6.36487 23.6821 6.08 22.2302 5.96973 20.3005C5.10595 21.1091 4.50865 21.8994 4.17784 22.6713L3.92973 23.7464L3.57135 25.4832C3.55297 25.6486 3.37838 25.7772 3.04757 25.8691C2.71676 25.9794 2.35838 26.0345 1.97243 26.0345C1.56811 26.0345 1.2373 25.9702 0.98 25.8416C0.704324 25.7129 0.603243 25.5291 0.676757 25.2902C1.50378 21.9086 2.36757 18.6005 3.26811 15.3659C4.18703 12.1129 5.01405 9.36533 5.74919 7.12317C5.78595 7.03128 5.89622 6.95777 6.08 6.90263C6.26378 6.8475 6.48432 6.81993 6.74162 6.81993C7.23784 6.81993 7.6973 6.90263 8.12 7.06804C8.5427 7.21506 8.7173 7.39885 8.64378 7.61939C7.11838 12.2691 5.97892 16.0091 5.22541 18.8394C5.94216 17.8653 6.78757 16.9188 7.76162 15.9999C8.75405 15.081 9.80162 14.3459 10.9043 13.7945C10.9962 13.7394 11.0881 13.7118 11.18 13.7118C11.4741 13.7118 11.7589 13.8772 12.0346 14.208C12.3103 14.5205 12.4481 14.8421 12.4481 15.1729C12.4481 15.3934 12.3654 15.5588 12.2 15.6691C11.6303 15.9999 10.9962 16.4318 10.2978 16.9648C9.59946 17.4794 8.95622 18.0307 8.36811 18.6188C8.31297 20.1626 8.42324 21.4767 8.69892 22.561C8.9746 23.627 9.42487 24.1599 10.0497 24.1599C10.7114 24.1599 11.4373 23.7924 12.2276 23.0572C13.0362 22.3221 13.7714 21.2102 14.433 19.7216ZM26.4617 19.7491C26.4801 19.6756 26.5444 19.6388 26.6547 19.6388C26.8385 19.6388 27.0314 19.7216 27.2336 19.887C27.4357 20.034 27.5001 20.1718 27.4266 20.3005C26.1401 23.2043 24.3666 24.5367 22.106 24.2978C21.0033 25.5107 19.5422 26.1172 17.7228 26.1172C16.4547 26.1172 15.5266 25.7864 14.9385 25.1248C14.3687 24.4448 14.0839 23.5259 14.0839 22.368C14.0839 21.3756 14.2309 20.2545 14.5249 19.0048C14.8374 17.7551 15.2785 16.2848 15.8482 14.594C15.9033 14.4286 16.0412 14.3091 16.2617 14.2356C16.5006 14.1621 16.7855 14.1253 17.1163 14.1253C17.5574 14.1253 17.9433 14.1805 18.2741 14.2907C18.6233 14.401 18.7703 14.5388 18.7152 14.7043C18.2374 16.0459 17.8055 17.461 17.4195 18.9497C17.7687 18.4902 18.2282 18.0951 18.7979 17.7643C19.386 17.4151 19.9925 17.2405 20.6174 17.2405C21.5179 17.2405 22.2071 17.5529 22.6849 18.1778C23.1812 18.8026 23.4293 19.5929 23.4293 20.5486C23.4293 21.394 23.2455 22.2394 22.8779 23.0848C23.5947 23.1032 24.2747 22.8091 24.9179 22.2026C25.5612 21.5778 26.0757 20.7599 26.4617 19.7491ZM16.7303 21.8167C16.6936 22.1107 16.6752 22.3313 16.6752 22.4783C16.6752 23.0113 16.7855 23.4248 17.006 23.7188C17.2449 24.0129 17.5849 24.1599 18.026 24.1599C18.4487 24.1599 18.7887 24.0864 19.046 23.9394C19.3217 23.7924 19.5882 23.5718 19.8455 23.2778C19.7352 23.0756 19.6801 22.8734 19.6801 22.6713C19.6801 22.3772 19.7812 22.1199 19.9833 21.8994C20.2039 21.6788 20.4612 21.5502 20.7552 21.5134C20.8471 21.1459 20.893 20.8151 20.893 20.521C20.893 20.0983 20.792 19.7583 20.5898 19.501C20.3876 19.2437 20.066 19.1151 19.6249 19.1151C19.0368 19.1151 18.4579 19.354 17.8882 19.8318C17.3368 20.3097 16.9509 20.9713 16.7303 21.8167ZM28.2405 26.1172C27.3583 26.1172 26.6967 25.8599 26.2556 25.3453C25.8145 24.8124 25.594 24.114 25.594 23.2502C25.594 22.2026 25.888 21.0356 26.4761 19.7491C26.4945 19.6756 26.568 19.6388 26.6967 19.6388C26.8621 19.6388 27.0459 19.7216 27.248 19.887C27.4502 20.0524 27.5145 20.1902 27.441 20.3005C27.0918 20.9988 26.9172 21.7156 26.9172 22.4507C26.9172 22.947 27.0091 23.3513 27.1929 23.6637C27.395 23.9761 27.6707 24.1324 28.0199 24.1324C28.4977 24.1324 28.9388 23.8934 29.3432 23.4156C29.7475 22.9378 30.1426 22.267 30.5286 21.4032C30.0323 21.201 29.6188 20.8794 29.288 20.4383C28.9756 19.9788 28.8194 19.4091 28.8194 18.7291C28.8194 18.3064 28.8837 17.8745 29.0123 17.4334C29.3248 16.3307 29.9588 15.4853 30.9145 14.8972C31.8702 14.3091 32.9729 14.0151 34.2226 14.0151C35.1599 14.0151 36.0788 14.1805 36.9794 14.5113C37.8799 14.8237 38.6702 15.2924 39.3502 15.9172C39.4605 16.0091 39.4421 16.2021 39.295 16.4961C39.148 16.7902 38.9459 17.0383 38.6886 17.2405C38.4313 17.4426 38.2291 17.4794 38.0821 17.3507C37.5491 16.9097 36.961 16.5788 36.3177 16.3583C35.6745 16.1378 35.0221 16.0275 34.3605 16.0275C34.0664 16.0275 33.855 16.0367 33.7264 16.0551C33.1934 16.1286 32.734 16.3216 32.348 16.634C31.9621 16.928 31.6956 17.3232 31.5486 17.8194C31.4567 18.1502 31.4107 18.4259 31.4107 18.6464C31.4107 19.1243 31.5486 19.501 31.8242 19.7767C32.1183 20.034 32.4675 20.1626 32.8718 20.1626C33.1291 20.1626 33.3772 20.0983 33.6161 19.9697C33.855 19.841 34.0664 19.6664 34.2502 19.4459C34.4523 18.8578 34.581 18.481 34.6361 18.3156C34.6913 18.0951 34.7923 17.7826 34.9394 17.3783C35.0129 17.2313 35.1967 17.1578 35.4907 17.1578C35.895 17.1578 36.3177 17.268 36.7588 17.4886C37.1999 17.6907 37.3837 17.8929 37.3102 18.0951C36.5567 20.2821 36.1799 21.881 36.1799 22.8918C36.1799 23.6637 36.428 24.0497 36.9242 24.0497C37.5123 24.0497 38.2107 23.5994 39.0194 22.6988C39.828 21.7799 40.4437 20.7967 40.8664 19.7491C40.9032 19.6388 41.0134 19.6113 41.1972 19.6664C41.381 19.7216 41.5372 19.8134 41.6659 19.9421C41.8129 20.0707 41.868 20.1902 41.8313 20.3005C41.0777 21.881 40.1129 23.2318 38.9367 24.3529C37.7788 25.4556 36.6669 26.007 35.601 26.007C34.9761 25.9886 34.4983 25.7497 34.1675 25.2902C33.8367 24.8124 33.6713 24.1599 33.6713 23.3329C33.6713 22.708 33.754 22.0372 33.9194 21.3205C33.6805 21.5226 33.3864 21.6697 33.0372 21.7616C32.3572 23.2686 31.6496 24.3713 30.9145 25.0697C30.1977 25.768 29.3064 26.1172 28.2405 26.1172ZM49.1494 26.0897C48.3775 26.0897 47.8169 25.9059 47.4678 25.5383C47.1369 25.1524 46.9715 24.5918 46.9715 23.8567C46.9715 23.1767 47.1094 22.267 47.3851 21.1275H43.5807L43.2499 22.4507C42.9375 23.6637 42.6802 24.6929 42.478 25.5383C42.4596 25.6853 42.2942 25.7956 41.9818 25.8691C41.6694 25.961 41.311 26.007 40.9067 26.007C40.4472 26.007 40.0613 25.9518 39.7488 25.8416C39.4364 25.7129 39.3169 25.5291 39.3905 25.2902C39.7764 23.8567 40.6494 20.4934 42.0094 15.2005L42.1472 14.6491C42.184 14.5021 42.3402 14.3918 42.6159 14.3183C42.8915 14.2264 43.2132 14.1805 43.5807 14.1805C44.0402 14.1805 44.4353 14.2448 44.7661 14.3734C45.0969 14.4837 45.2348 14.6491 45.1796 14.8697C44.9775 15.6783 44.711 16.6891 44.3802 17.9021L44.0494 19.1978H47.8261C47.8813 19.014 48.1569 17.948 48.6532 15.9999C48.7818 15.4118 48.8921 14.9616 48.984 14.6491C49.0207 14.5021 49.1769 14.3918 49.4526 14.3183C49.7283 14.2264 50.0499 14.1805 50.4175 14.1805C50.8769 14.1805 51.2721 14.2448 51.6029 14.3734C51.9521 14.5021 52.0991 14.6675 52.044 14.8697L51.3823 17.3232C51.0332 18.5361 50.6196 20.0524 50.1418 21.8718C49.9764 22.4599 49.8937 22.9561 49.8937 23.3605C49.8937 23.8934 50.0683 24.1599 50.4175 24.1599C50.9688 24.1599 51.6029 23.728 52.3196 22.8643C53.0364 22.0005 53.6613 20.9621 54.1942 19.7491C54.2126 19.6756 54.2769 19.6388 54.3872 19.6388C54.571 19.6388 54.764 19.7216 54.9661 19.887C55.1683 20.0524 55.2326 20.1902 55.1591 20.3005C53.3213 24.1599 51.318 26.0897 49.1494 26.0897ZM68.6782 26.0897C67.0058 26.1448 66.1696 25.428 66.1696 23.9394C66.1696 23.6637 66.1971 23.3605 66.2523 23.0297C66.3074 22.6805 66.4268 22.1291 66.6106 21.3756C66.8128 20.6037 66.9598 20.0248 67.0517 19.6388C67.1804 19.1794 67.3182 18.6556 67.4652 18.0675C67.5755 17.6264 67.6306 17.2956 67.6306 17.0751C67.6306 16.5605 67.4009 16.3032 66.9414 16.3032C66.4636 16.3216 65.8847 16.6707 65.2047 17.3507C64.5431 18.0124 64.056 18.7199 63.7436 19.4734C63.6517 19.8043 63.3577 20.9897 62.8614 23.0297L62.255 25.5107C62.1814 25.6578 61.9977 25.768 61.7036 25.8416C61.4096 25.9334 61.0696 25.9794 60.6836 25.9794C60.2977 25.9794 59.9577 25.9334 59.6636 25.8416C59.3879 25.7497 59.2409 25.6026 59.2225 25.4005C59.6085 23.7464 60.215 21.2653 61.042 17.9572C61.1155 17.7367 61.1523 17.4702 61.1523 17.1578C61.1523 16.6064 60.9317 16.3399 60.4906 16.3583C60.0679 16.3583 59.5533 16.6524 58.9468 17.2405C58.3587 17.8286 57.8258 18.5453 57.3479 19.3907C56.9068 20.8978 56.3831 22.947 55.7766 25.5383C55.7214 25.667 55.556 25.768 55.2804 25.8416C55.0047 25.9334 54.6831 25.9794 54.3155 25.9794C53.856 25.9794 53.4701 25.9151 53.1577 25.7864C52.8452 25.6578 52.6982 25.474 52.7166 25.2351C52.7166 25.2351 53.2128 23.388 54.2052 19.694C54.9036 17.1394 55.3723 15.3934 55.6112 14.4561C55.7766 14.2172 56.1533 14.0978 56.7414 14.0978C57.1641 14.0978 57.5501 14.1713 57.8993 14.3183C58.2485 14.447 58.4414 14.6307 58.4782 14.8697L57.8717 17.0475C58.4414 16.2572 59.1123 15.568 59.8841 14.9799C60.656 14.3918 61.4187 14.0978 62.1723 14.0978C62.8155 14.0978 63.3117 14.2816 63.6609 14.6491C64.0285 15.0167 64.2123 15.5221 64.2123 16.1653C64.2123 16.4594 64.1939 16.6891 64.1571 16.8545C65.5906 15.0167 67.0241 14.0978 68.4577 14.0978C70.0566 14.0978 70.856 14.8329 70.856 16.3032C70.856 16.634 70.7917 17.1026 70.6631 17.7091C70.5712 18.1134 70.3966 18.7383 70.1393 19.5837C69.8452 20.5578 69.6247 21.3297 69.4777 21.8994C69.3306 22.4507 69.2571 22.9286 69.2571 23.3329C69.2571 23.8843 69.4317 24.1599 69.7809 24.1599C70.2955 24.1599 70.9204 23.7188 71.6555 22.8367C72.409 21.9545 73.0339 20.9253 73.5301 19.7491C73.5668 19.6388 73.6771 19.6113 73.8609 19.6664C74.0447 19.7216 74.2101 19.8134 74.3571 19.9421C74.5041 20.0707 74.5501 20.1902 74.495 20.3005C73.7782 21.8626 72.9236 23.2134 71.9312 24.3529C70.9571 25.474 69.8728 26.0529 68.6782 26.0897ZM81.8878 14.5113C82.0165 14.2724 82.384 14.1529 82.9905 14.1529C83.3948 14.1529 83.7716 14.2264 84.1208 14.3734C84.4883 14.5021 84.6997 14.6767 84.7548 14.8972C84.7181 15.0626 84.6629 15.2464 84.5894 15.4486C84.5343 15.6324 84.4792 15.8345 84.424 16.0551C83.9278 17.7643 83.5327 19.1886 83.2386 20.328C82.9629 21.4675 82.8251 22.3956 82.8251 23.1124C82.8251 23.7556 82.9813 24.0772 83.2938 24.0772C83.8083 24.0956 84.424 23.6729 85.1408 22.8091C85.8575 21.9453 86.4732 20.9253 86.9878 19.7491C87.0062 19.6756 87.0797 19.6388 87.2083 19.6388C87.3738 19.6388 87.5575 19.7216 87.7597 19.887C87.9619 20.0524 88.0262 20.1902 87.9527 20.3005C87.1992 21.8075 86.3538 23.1307 85.4165 24.2702C84.4792 25.4097 83.3856 25.9794 82.1359 25.9794C81.5478 25.9794 81.0883 25.7589 80.7575 25.3178C80.4451 24.8583 80.2889 24.2886 80.2889 23.6086C80.2889 23.3329 80.3348 22.9929 80.4267 22.5886C79.6916 23.8199 78.9013 24.7113 78.0559 25.2626C77.2289 25.814 76.3467 26.0897 75.4094 26.0897C74.5089 26.0897 73.8381 25.8599 73.397 25.4005C72.9743 24.9226 72.7629 24.2886 72.7629 23.4983C72.7629 23.2961 72.7997 22.9561 72.8732 22.4783C73.0937 21.247 73.544 19.4918 74.224 17.2129C74.4997 16.294 74.7478 15.4118 74.9683 14.5664C75.0419 14.4378 75.1797 14.3367 75.3819 14.2632C75.6024 14.1897 75.8597 14.1529 76.1538 14.1529C76.5765 14.1529 76.9624 14.2264 77.3116 14.3734C77.6608 14.5021 77.8354 14.6675 77.8354 14.8697L77.3116 16.827C76.9624 18.0583 76.604 19.4734 76.2365 21.0724C75.9975 22.028 75.8781 22.708 75.8781 23.1124C75.8781 23.7556 76.117 24.0772 76.5948 24.0772C76.9624 24.0772 77.3759 23.9118 77.8354 23.581C78.3132 23.2318 78.7635 22.754 79.1862 22.1475C79.6273 21.541 79.9765 20.861 80.2338 20.1075C80.5829 19.0783 81.0516 17.4978 81.6397 15.3659L81.8878 14.5113Z" fill="#E1DFE0"/>
</svg>
