<svg width="89" height="21" viewBox="0 0 89 21" fill="none" xmlns="http://www.w3.org/2000/svg">
<path d="M14.433 13.7216C14.4881 13.6297 14.5984 13.6205 14.7638 13.694C14.9476 13.7491 15.1038 13.841 15.2324 13.9697C15.3795 14.0983 15.4346 14.2086 15.3978 14.3005C14.5341 16.1016 13.5508 17.5259 12.4481 18.5734C11.3638 19.6026 10.2611 20.1172 9.14 20.1172C8.05568 20.1172 7.28378 19.6302 6.82433 18.6561C6.36487 17.6821 6.08 16.2302 5.96973 14.3005C5.10595 15.1091 4.50865 15.8994 4.17784 16.6713L3.92973 17.7464L3.57135 19.4832C3.55297 19.6486 3.37838 19.7772 3.04757 19.8691C2.71676 19.9794 2.35838 20.0345 1.97243 20.0345C1.56811 20.0345 1.2373 19.9702 0.98 19.8416C0.704324 19.7129 0.603243 19.5291 0.676757 19.2902C1.50378 15.9086 2.36757 12.6005 3.26811 9.36588C4.18703 6.1129 5.01405 3.36533 5.74919 1.12317C5.78595 1.03128 5.89622 0.957767 6.08 0.902631C6.26378 0.847496 6.48432 0.819928 6.74162 0.819928C7.23784 0.819928 7.6973 0.902631 8.12 1.06804C8.5427 1.21506 8.7173 1.39885 8.64378 1.61939C7.11838 6.26912 5.97892 10.0091 5.22541 12.8394C5.94216 11.8653 6.78757 10.9188 7.76162 9.99993C8.75405 9.08101 9.80162 8.34588 10.9043 7.79452C10.9962 7.73939 11.0881 7.71182 11.18 7.71182C11.4741 7.71182 11.7589 7.87723 12.0346 8.20804C12.3103 8.52047 12.4481 8.84209 12.4481 9.1729C12.4481 9.39344 12.3654 9.55885 12.2 9.66912C11.6303 9.99993 10.9962 10.4318 10.2978 10.9648C9.59946 11.4794 8.95622 12.0307 8.36811 12.6188C8.31297 14.1626 8.42324 15.4767 8.69892 16.561C8.9746 17.627 9.42487 18.1599 10.0497 18.1599C10.7114 18.1599 11.4373 17.7924 12.2276 17.0572C13.0362 16.3221 13.7714 15.2102 14.433 13.7216ZM26.4617 13.7491C26.4801 13.6756 26.5444 13.6388 26.6547 13.6388C26.8385 13.6388 27.0314 13.7216 27.2336 13.887C27.4357 14.034 27.5001 14.1718 27.4266 14.3005C26.1401 17.2043 24.3666 18.5367 22.106 18.2978C21.0033 19.5107 19.5422 20.1172 17.7228 20.1172C16.4547 20.1172 15.5266 19.7864 14.9385 19.1248C14.3687 18.4448 14.0839 17.5259 14.0839 16.368C14.0839 15.3756 14.2309 14.2545 14.5249 13.0048C14.8374 11.7551 15.2785 10.2848 15.8482 8.59398C15.9033 8.42858 16.0412 8.30912 16.2617 8.2356C16.5006 8.16209 16.7855 8.12534 17.1163 8.12534C17.5574 8.12534 17.9433 8.18047 18.2741 8.29074C18.6233 8.40101 18.7703 8.53885 18.7152 8.70425C18.2374 10.0459 17.8055 11.461 17.4195 12.9497C17.7687 12.4902 18.2282 12.0951 18.7979 11.7643C19.386 11.4151 19.9925 11.2405 20.6174 11.2405C21.5179 11.2405 22.2071 11.5529 22.6849 12.1778C23.1812 12.8026 23.4293 13.5929 23.4293 14.5486C23.4293 15.394 23.2455 16.2394 22.8779 17.0848C23.5947 17.1032 24.2747 16.8091 24.9179 16.2026C25.5612 15.5778 26.0757 14.7599 26.4617 13.7491ZM16.7303 15.8167C16.6936 16.1107 16.6752 16.3313 16.6752 16.4783C16.6752 17.0113 16.7855 17.4248 17.006 17.7188C17.2449 18.0129 17.5849 18.1599 18.026 18.1599C18.4487 18.1599 18.7887 18.0864 19.046 17.9394C19.3217 17.7924 19.5882 17.5718 19.8455 17.2778C19.7352 17.0756 19.6801 16.8734 19.6801 16.6713C19.6801 16.3772 19.7812 16.1199 19.9833 15.8994C20.2039 15.6788 20.4612 15.5502 20.7552 15.5134C20.8471 15.1459 20.893 14.8151 20.893 14.521C20.893 14.0983 20.792 13.7583 20.5898 13.501C20.3876 13.2437 20.066 13.1151 19.6249 13.1151C19.0368 13.1151 18.4579 13.354 17.8882 13.8318C17.3368 14.3097 16.9509 14.9713 16.7303 15.8167ZM28.2405 20.1172C27.3583 20.1172 26.6967 19.8599 26.2556 19.3453C25.8145 18.8124 25.594 18.114 25.594 17.2502C25.594 16.2026 25.888 15.0356 26.4761 13.7491C26.4945 13.6756 26.568 13.6388 26.6967 13.6388C26.8621 13.6388 27.0459 13.7216 27.248 13.887C27.4502 14.0524 27.5145 14.1902 27.441 14.3005C27.0918 14.9988 26.9172 15.7156 26.9172 16.4507C26.9172 16.947 27.0091 17.3513 27.1929 17.6637C27.395 17.9761 27.6707 18.1324 28.0199 18.1324C28.4977 18.1324 28.9388 17.8934 29.3432 17.4156C29.7475 16.9378 30.1426 16.267 30.5286 15.4032C30.0323 15.201 29.6188 14.8794 29.288 14.4383C28.9756 13.9788 28.8194 13.4091 28.8194 12.7291C28.8194 12.3064 28.8837 11.8745 29.0123 11.4334C29.3248 10.3307 29.9588 9.48534 30.9145 8.89723C31.8702 8.30912 32.9729 8.01506 34.2226 8.01506C35.1599 8.01506 36.0788 8.18047 36.9794 8.51128C37.8799 8.82371 38.6702 9.29236 39.3502 9.91723C39.4605 10.0091 39.4421 10.2021 39.295 10.4961C39.148 10.7902 38.9459 11.0383 38.6886 11.2405C38.4313 11.4426 38.2291 11.4794 38.0821 11.3507C37.5491 10.9097 36.961 10.5788 36.3177 10.3583C35.6745 10.1378 35.0221 10.0275 34.3605 10.0275C34.0664 10.0275 33.855 10.0367 33.7264 10.0551C33.1934 10.1286 32.734 10.3216 32.348 10.634C31.9621 10.928 31.6956 11.3232 31.5486 11.8194C31.4567 12.1502 31.4107 12.4259 31.4107 12.6464C31.4107 13.1243 31.5486 13.501 31.8242 13.7767C32.1183 14.034 32.4675 14.1626 32.8718 14.1626C33.1291 14.1626 33.3772 14.0983 33.6161 13.9697C33.855 13.841 34.0664 13.6664 34.2502 13.4459C34.4523 12.8578 34.581 12.481 34.6361 12.3156C34.6913 12.0951 34.7923 11.7826 34.9394 11.3783C35.0129 11.2313 35.1967 11.1578 35.4907 11.1578C35.895 11.1578 36.3177 11.268 36.7588 11.4886C37.1999 11.6907 37.3837 11.8929 37.3102 12.0951C36.5567 14.2821 36.1799 15.881 36.1799 16.8918C36.1799 17.6637 36.428 18.0497 36.9242 18.0497C37.5123 18.0497 38.2107 17.5994 39.0194 16.6988C39.828 15.7799 40.4437 14.7967 40.8664 13.7491C40.9032 13.6388 41.0134 13.6113 41.1972 13.6664C41.381 13.7216 41.5372 13.8134 41.6659 13.9421C41.8129 14.0707 41.868 14.1902 41.8313 14.3005C41.0777 15.881 40.1129 17.2318 38.9367 18.3529C37.7788 19.4556 36.6669 20.007 35.601 20.007C34.9761 19.9886 34.4983 19.7497 34.1675 19.2902C33.8367 18.8124 33.6713 18.1599 33.6713 17.3329C33.6713 16.708 33.754 16.0372 33.9194 15.3205C33.6805 15.5226 33.3864 15.6697 33.0372 15.7616C32.3572 17.2686 31.6496 18.3713 30.9145 19.0697C30.1977 19.768 29.3064 20.1172 28.2405 20.1172ZM49.1494 20.0897C48.3775 20.0897 47.8169 19.9059 47.4678 19.5383C47.1369 19.1524 46.9715 18.5918 46.9715 17.8567C46.9715 17.1767 47.1094 16.267 47.3851 15.1275H43.5807L43.2499 16.4507C42.9375 17.6637 42.6802 18.6929 42.478 19.5383C42.4596 19.6853 42.2942 19.7956 41.9818 19.8691C41.6694 19.961 41.311 20.007 40.9067 20.007C40.4472 20.007 40.0613 19.9518 39.7488 19.8416C39.4364 19.7129 39.3169 19.5291 39.3905 19.2902C39.7764 17.8567 40.6494 14.4934 42.0094 9.20047L42.1472 8.64912C42.184 8.50209 42.3402 8.39182 42.6159 8.31831C42.8915 8.22642 43.2132 8.18047 43.5807 8.18047C44.0402 8.18047 44.4353 8.24479 44.7661 8.37344C45.0969 8.48371 45.2348 8.64912 45.1796 8.86966C44.9775 9.67831 44.711 10.6891 44.3802 11.9021L44.0494 13.1978H47.8261C47.8813 13.014 48.1569 11.948 48.6532 9.99993C48.7818 9.41182 48.8921 8.96155 48.984 8.64912C49.0207 8.50209 49.1769 8.39182 49.4526 8.31831C49.7283 8.22642 50.0499 8.18047 50.4175 8.18047C50.8769 8.18047 51.2721 8.24479 51.6029 8.37344C51.9521 8.50209 52.0991 8.6675 52.044 8.86966L51.3823 11.3232C51.0332 12.5361 50.6196 14.0524 50.1418 15.8718C49.9764 16.4599 49.8937 16.9561 49.8937 17.3605C49.8937 17.8934 50.0683 18.1599 50.4175 18.1599C50.9688 18.1599 51.6029 17.728 52.3196 16.8643C53.0364 16.0005 53.6613 14.9621 54.1942 13.7491C54.2126 13.6756 54.2769 13.6388 54.3872 13.6388C54.571 13.6388 54.764 13.7216 54.9661 13.887C55.1683 14.0524 55.2326 14.1902 55.1591 14.3005C53.3213 18.1599 51.318 20.0897 49.1494 20.0897ZM68.6782 20.0897C67.0058 20.1448 66.1696 19.428 66.1696 17.9394C66.1696 17.6637 66.1971 17.3605 66.2523 17.0297C66.3074 16.6805 66.4268 16.1291 66.6106 15.3756C66.8128 14.6037 66.9598 14.0248 67.0517 13.6388C67.1804 13.1794 67.3182 12.6556 67.4652 12.0675C67.5755 11.6264 67.6306 11.2956 67.6306 11.0751C67.6306 10.5605 67.4009 10.3032 66.9414 10.3032C66.4636 10.3216 65.8847 10.6707 65.2047 11.3507C64.5431 12.0124 64.056 12.7199 63.7436 13.4734C63.6517 13.8043 63.3577 14.9897 62.8614 17.0297L62.255 19.5107C62.1814 19.6578 61.9977 19.768 61.7036 19.8416C61.4096 19.9334 61.0696 19.9794 60.6836 19.9794C60.2977 19.9794 59.9577 19.9334 59.6636 19.8416C59.3879 19.7497 59.2409 19.6026 59.2225 19.4005C59.6085 17.7464 60.215 15.2653 61.042 11.9572C61.1155 11.7367 61.1523 11.4702 61.1523 11.1578C61.1523 10.6064 60.9317 10.3399 60.4906 10.3583C60.0679 10.3583 59.5533 10.6524 58.9468 11.2405C58.3587 11.8286 57.8258 12.5453 57.3479 13.3907C56.9068 14.8978 56.3831 16.947 55.7766 19.5383C55.7214 19.667 55.556 19.768 55.2804 19.8416C55.0047 19.9334 54.6831 19.9794 54.3155 19.9794C53.856 19.9794 53.4701 19.9151 53.1577 19.7864C52.8452 19.6578 52.6982 19.474 52.7166 19.2351C52.7166 19.2351 53.2128 17.388 54.2052 13.694C54.9036 11.1394 55.3723 9.39344 55.6112 8.45615C55.7766 8.21723 56.1533 8.09777 56.7414 8.09777C57.1641 8.09777 57.5501 8.17128 57.8993 8.31831C58.2485 8.44696 58.4414 8.63074 58.4782 8.86966L57.8717 11.0475C58.4414 10.2572 59.1123 9.56804 59.8841 8.97993C60.656 8.39182 61.4187 8.09777 62.1723 8.09777C62.8155 8.09777 63.3117 8.28155 63.6609 8.64912C64.0285 9.01669 64.2123 9.52209 64.2123 10.1653C64.2123 10.4594 64.1939 10.6891 64.1571 10.8545C65.5906 9.01669 67.0241 8.09777 68.4577 8.09777C70.0566 8.09777 70.856 8.8329 70.856 10.3032C70.856 10.634 70.7917 11.1026 70.6631 11.7091C70.5712 12.1134 70.3966 12.7383 70.1393 13.5837C69.8452 14.5578 69.6247 15.3297 69.4777 15.8994C69.3306 16.4507 69.2571 16.9286 69.2571 17.3329C69.2571 17.8843 69.4317 18.1599 69.7809 18.1599C70.2955 18.1599 70.9204 17.7188 71.6555 16.8367C72.409 15.9545 73.0339 14.9253 73.5301 13.7491C73.5668 13.6388 73.6771 13.6113 73.8609 13.6664C74.0447 13.7216 74.2101 13.8134 74.3571 13.9421C74.5041 14.0707 74.5501 14.1902 74.495 14.3005C73.7782 15.8626 72.9236 17.2134 71.9312 18.3529C70.9571 19.474 69.8728 20.0529 68.6782 20.0897ZM81.8878 8.51128C82.0165 8.27236 82.384 8.1529 82.9905 8.1529C83.3948 8.1529 83.7716 8.22642 84.1208 8.37344C84.4883 8.50209 84.6997 8.67669 84.7548 8.89723C84.7181 9.06263 84.6629 9.24642 84.5894 9.44858C84.5343 9.63236 84.4792 9.83452 84.424 10.0551C83.9278 11.7643 83.5327 13.1886 83.2386 14.328C82.9629 15.4675 82.8251 16.3956 82.8251 17.1124C82.8251 17.7556 82.9813 18.0772 83.2938 18.0772C83.8083 18.0956 84.424 17.6729 85.1408 16.8091C85.8575 15.9453 86.4732 14.9253 86.9878 13.7491C87.0062 13.6756 87.0797 13.6388 87.2083 13.6388C87.3738 13.6388 87.5575 13.7216 87.7597 13.887C87.9619 14.0524 88.0262 14.1902 87.9527 14.3005C87.1992 15.8075 86.3538 17.1307 85.4165 18.2702C84.4792 19.4097 83.3856 19.9794 82.1359 19.9794C81.5478 19.9794 81.0883 19.7589 80.7575 19.3178C80.4451 18.8583 80.2889 18.2886 80.2889 17.6086C80.2889 17.3329 80.3348 16.9929 80.4267 16.5886C79.6916 17.8199 78.9013 18.7113 78.0559 19.2626C77.2289 19.814 76.3467 20.0897 75.4094 20.0897C74.5089 20.0897 73.8381 19.8599 73.397 19.4005C72.9743 18.9226 72.7629 18.2886 72.7629 17.4983C72.7629 17.2961 72.7997 16.9561 72.8732 16.4783C73.0937 15.247 73.544 13.4918 74.224 11.2129C74.4997 10.294 74.7478 9.41182 74.9683 8.56642C75.0419 8.43777 75.1797 8.33669 75.3819 8.26317C75.6024 8.18966 75.8597 8.1529 76.1538 8.1529C76.5765 8.1529 76.9624 8.22642 77.3116 8.37344C77.6608 8.50209 77.8354 8.6675 77.8354 8.86966L77.3116 10.827C76.9624 12.0583 76.604 13.4734 76.2365 15.0724C75.9975 16.028 75.8781 16.708 75.8781 17.1124C75.8781 17.7556 76.117 18.0772 76.5948 18.0772C76.9624 18.0772 77.3759 17.9118 77.8354 17.581C78.3132 17.2318 78.7635 16.754 79.1862 16.1475C79.6273 15.541 79.9765 14.861 80.2338 14.1075C80.5829 13.0783 81.0516 11.4978 81.6397 9.36588L81.8878 8.51128Z" fill="#E1DFE0"/>
</svg>
